<?xml version="1.0" standalone="no"?>
<!DOCTYPE svg PUBLIC "-//W3C//DTD SVG 20010904//EN"
 "http://www.w3.org/TR/2001/REC-SVG-20010904/DTD/svg10.dtd">
<svg version="1.0" xmlns="http://www.w3.org/2000/svg"
 width="201.000000pt" height="214.000000pt" viewBox="0 0 201.000000 214.000000"
 preserveAspectRatio="xMidYMid meet">

<g transform="translate(0.000000,214.000000) scale(0.100000,-0.100000)"
fill="#000000" stroke="none">
<path d="M1048 1880 c-17 -10 -164 -218 -277 -389 l-62 -94 -172 -57 c-216
-72 -263 -93 -272 -119 -10 -32 6 -51 112 -135 l99 -78 -101 -201 c-116 -234
-160 -351 -151 -401 14 -73 75 -88 156 -38 27 17 142 99 255 182 l206 151 37
-32 c20 -18 130 -116 245 -218 114 -102 223 -194 242 -205 47 -24 96 -15 129
25 40 47 35 93 -29 266 -64 177 -149 467 -142 485 5 14 228 158 427 276 158
94 172 106 168 151 -5 57 -39 73 -165 82 -108 8 -392 -4 -490 -20 -29 -4 -53
-7 -53 -5 0 27 -54 332 -61 345 -18 35 -66 49 -101 29z m-43 -190 c3 -5 14
-55 24 -110 13 -73 15 -103 7 -105 -26 -9 -239 -55 -242 -52 -8 8 183 277 196
277 5 0 11 -4 15 -10z m619 -269 c13 -20 -11 -40 -171 -144 -113 -74 -168
-105 -173 -97 -13 21 -50 224 -42 232 14 14 378 23 386 9z m-554 -78 c7 -32
23 -105 36 -162 20 -84 22 -107 12 -116 -7 -7 -84 -58 -170 -114 -102 -67
-162 -100 -170 -95 -36 23 -218 177 -214 182 64 114 169 298 173 302 3 3 248
49 315 59 4 1 12 -25 18 -56z m-413 -30 c-7 -13 -140 -238 -143 -242 -7 -8
-174 131 -174 145 0 17 16 24 169 69 116 34 156 41 148 28z m-28 -432 c50 -41
91 -77 91 -80 0 -12 -321 -226 -338 -226 -36 0 -23 47 59 216 46 93 86 168 90
167 4 -2 49 -36 98 -77z m566 -58 c15 -54 47 -160 71 -236 42 -132 46 -157 22
-157 -8 0 -287 232 -362 300 -17 17 -13 21 105 103 68 48 127 86 130 87 4 0
19 -44 34 -97z"/>
</g>
</svg>
